<svg xmlns="http://www.w3.org/2000/svg" width="200" height="240" viewBox="0 0 200 240" fill="none">
  <defs>
    <radialGradient id="bubble" cx="50%" cy="50%" r="50%">
      <stop offset="0%" stop-color="white" stop-opacity="1"/>
      <stop offset="70%" stop-color="white" stop-opacity="0"/>
      <stop offset="100%" stop-color="white" stop-opacity="0"/>
    </radialGradient>
  </defs>
  <circle cx="32.00" cy="19.20" r="3.00" fill="url(#bubble)" opacity="0.36"/>
  <circle cx="32.00" cy="43.20" r="4.00" fill="url(#bubble)" opacity="0.40"/>
  <circle cx="32.00" cy="81.60" r="2.50" fill="url(#bubble)" opacity="0.28"/>
  <circle cx="32.00" cy="120.00" r="2.50" fill="url(#bubble)" opacity="0.32"/>
  <circle cx="32.00" cy="158.40" r="3.50" fill="url(#bubble)" opacity="0.34"/>
  <circle cx="32.00" cy="196.80" r="3.50" fill="url(#bubble)" opacity="0.36"/>
  <circle cx="32.00" cy="230.40" r="3.00" fill="url(#bubble)" opacity="0.30"/>
  <circle cx="92.00" cy="14.40" r="3.50" fill="url(#bubble)" opacity="0.34"/>
  <circle cx="92.00" cy="33.60" r="4.50" fill="url(#bubble)" opacity="0.38"/>
  <circle cx="92.00" cy="72.00" r="2.50" fill="url(#bubble)" opacity="0.26"/>
  <circle cx="92.00" cy="110.40" r="2.50" fill="url(#bubble)" opacity="0.30"/>
  <circle cx="92.00" cy="148.80" r="3.00" fill="url(#bubble)" opacity="0.32"/>
  <circle cx="92.00" cy="192.00" r="3.50" fill="url(#bubble)" opacity="0.34"/>
  <circle cx="92.00" cy="225.60" r="2.50" fill="url(#bubble)" opacity="0.28"/>
  <circle cx="144.00" cy="28.80" r="3.00" fill="url(#bubble)" opacity="0.30"/>
  <circle cx="144.00" cy="62.40" r="3.50" fill="url(#bubble)" opacity="0.34"/>
  <circle cx="144.00" cy="105.60" r="2.50" fill="url(#bubble)" opacity="0.26"/>
  <circle cx="144.00" cy="139.20" r="2.50" fill="url(#bubble)" opacity="0.28"/>
  <circle cx="144.00" cy="182.40" r="3.00" fill="url(#bubble)" opacity="0.30"/>
  <circle cx="144.00" cy="220.80" r="3.50" fill="url(#bubble)" opacity="0.32"/>
  <circle cx="180.00" cy="24.00" r="3.00" fill="url(#bubble)" opacity="0.30"/>
  <circle cx="180.00" cy="52.80" r="3.50" fill="url(#bubble)" opacity="0.34"/>
  <circle cx="180.00" cy="96.00" r="2.50" fill="url(#bubble)" opacity="0.26"/>
  <circle cx="180.00" cy="129.60" r="2.50" fill="url(#bubble)" opacity="0.28"/>
  <circle cx="180.00" cy="168.00" r="3.00" fill="url(#bubble)" opacity="0.30"/>
  <circle cx="180.00" cy="211.20" r="4.00" fill="url(#bubble)" opacity="0.32"/>
</svg>