<svg xmlns="http://www.w3.org/2000/svg" width="160" height="180" viewBox="0 0 160 180" fill="none">
  <defs>
    <radialGradient id="bubble" cx="50%" cy="50%" r="50%">
      <stop offset="0%" stop-color="white" stop-opacity="1"/>
      <stop offset="70%" stop-color="white" stop-opacity="0"/>
      <stop offset="100%" stop-color="white" stop-opacity="0"/>
    </radialGradient>
  </defs>
  <circle cx="24.00" cy="10.80" r="5.00" fill="url(#bubble)" opacity="0.70"/>
  <circle cx="24.00" cy="28.80" r="6.00" fill="url(#bubble)" opacity="0.80"/>
  <circle cx="24.00" cy="54.00" r="4.00" fill="url(#bubble)" opacity="0.60"/>
  <circle cx="24.00" cy="82.80" r="4.00" fill="url(#bubble)" opacity="0.60"/>
  <circle cx="24.00" cy="111.60" r="5.00" fill="url(#bubble)" opacity="0.62"/>
  <circle cx="24.00" cy="140.40" r="5.00" fill="url(#bubble)" opacity="0.65"/>
  <circle cx="24.00" cy="165.60" r="6.00" fill="url(#bubble)" opacity="0.58"/>
  <circle cx="56.00" cy="14.40" r="5.00" fill="url(#bubble)" opacity="0.66"/>
  <circle cx="56.00" cy="32.40" r="6.00" fill="url(#bubble)" opacity="0.70"/>
  <circle cx="56.00" cy="57.60" r="4.00" fill="url(#bubble)" opacity="0.56"/>
  <circle cx="56.00" cy="86.40" r="4.00" fill="url(#bubble)" opacity="0.56"/>
  <circle cx="56.00" cy="115.20" r="5.00" fill="url(#bubble)" opacity="0.60"/>
  <circle cx="56.00" cy="144.00" r="5.00" fill="url(#bubble)" opacity="0.62"/>
  <circle cx="56.00" cy="169.20" r="6.00" fill="url(#bubble)" opacity="0.56"/>
  <circle cx="88.00" cy="7.20" r="6.00" fill="url(#bubble)" opacity="0.68"/>
  <circle cx="88.00" cy="18.00" r="7.00" fill="url(#bubble)" opacity="0.72"/>
  <circle cx="88.00" cy="46.80" r="5.00" fill="url(#bubble)" opacity="0.60"/>
  <circle cx="88.00" cy="68.40" r="4.00" fill="url(#bubble)" opacity="0.55"/>
  <circle cx="88.00" cy="100.80" r="6.00" fill="url(#bubble)" opacity="0.62"/>
  <circle cx="88.00" cy="126.00" r="6.00" fill="url(#bubble)" opacity="0.60"/>
  <circle cx="88.00" cy="158.40" r="5.00" fill="url(#bubble)" opacity="0.58"/>
  <circle cx="120.00" cy="10.80" r="5.00" fill="url(#bubble)" opacity="0.60"/>
  <circle cx="120.00" cy="32.40" r="6.00" fill="url(#bubble)" opacity="0.62"/>
  <circle cx="120.00" cy="61.20" r="4.00" fill="url(#bubble)" opacity="0.50"/>
  <circle cx="120.00" cy="93.60" r="4.00" fill="url(#bubble)" opacity="0.52"/>
  <circle cx="120.00" cy="122.40" r="5.00" fill="url(#bubble)" opacity="0.54"/>
  <circle cx="120.00" cy="151.20" r="6.00" fill="url(#bubble)" opacity="0.56"/>
  <circle cx="144.00" cy="10.80" r="5.00" fill="url(#bubble)" opacity="0.58"/>
  <circle cx="144.00" cy="32.40" r="5.00" fill="url(#bubble)" opacity="0.60"/>
  <circle cx="144.00" cy="61.20" r="4.00" fill="url(#bubble)" opacity="0.48"/>
  <circle cx="144.00" cy="93.60" r="4.00" fill="url(#bubble)" opacity="0.50"/>
  <circle cx="144.00" cy="122.40" r="5.00" fill="url(#bubble)" opacity="0.52"/>
  <circle cx="144.00" cy="151.20" r="6.00" fill="url(#bubble)" opacity="0.56"/>
</svg>