<svg xmlns="http://www.w3.org/2000/svg" xmlns:xlink="http://www.w3.org/1999/xlink" width="440" zoomAndPan="magnify" viewBox="0 0 330 209.999996" height="280" preserveAspectRatio="xMidYMid meet" version="1.0"><defs><g/><clipPath id="8f28e3c8ce"><path d="M 268.105469 20.988281 L 326.238281 20.988281 L 326.238281 199.183594 L 268.105469 199.183594 Z M 268.105469 20.988281 " clip-rule="nonzero"/></clipPath><clipPath id="4cf4fb8608"><path d="M 0.105469 0.988281 L 58.238281 0.988281 L 58.238281 179.183594 L 0.105469 179.183594 Z M 0.105469 0.988281 " clip-rule="nonzero"/></clipPath><clipPath id="cc7b876b6d"><rect x="0" width="59" y="0" height="180"/></clipPath></defs><g fill="#7ed957" fill-opacity="1"><g transform="translate(0.00000345714, 198.498715)"><g><path d="M 44.953125 1.53125 L 43.171875 1.28125 L 40.609375 1.015625 L 37.8125 0.515625 L 35.5 -0.25 L 32.953125 -1.28125 L 31.9375 -1.78125 L 28.609375 -3.0625 L 25.28125 -4.859375 L 21.71875 -7.15625 L 20.4375 -8.9375 L 18.140625 -11.5 L 16.09375 -14.046875 L 13.28125 -18.390625 L 12.765625 -19.921875 L 12.265625 -22.984375 L 11.234375 -25.03125 L 10.734375 -27.59375 L 10.734375 -29.125 L 10.21875 -30.65625 L 9.453125 -37.296875 L 9.203125 -40.609375 L 9.203125 -45.71875 L 9.453125 -47.765625 L 9.703125 -56.96875 L 9.96875 -61.046875 L 10.21875 -65.640625 L 11.75 -71.015625 L 12 -76.125 L 12.265625 -78.9375 L 13.53125 -80.71875 L 15.84375 -81.484375 L 17.109375 -82.5 L 18.90625 -82.5 L 24.265625 -83.015625 L 26.5625 -82.765625 L 30.390625 -82.5 L 31.15625 -82.765625 L 35 -82.765625 L 44.1875 -82.5 L 44.453125 -82.25 L 46.75 -81.734375 L 47.25 -78.671875 L 47.25 -76.125 L 46.484375 -67.6875 L 45.71875 -63.34375 L 45.21875 -59 L 44.703125 -53.125 L 43.9375 -46.234375 L 43.9375 -41.890625 L 44.1875 -38.578125 L 44.953125 -36.015625 L 47 -33.71875 L 49.296875 -32.4375 L 52.109375 -32.4375 L 55.4375 -32.703125 L 58.234375 -34.734375 L 59.765625 -36.78125 L 61.3125 -40.109375 L 62.078125 -43.6875 L 63.09375 -47.25 L 64.375 -53.640625 L 64.875 -55.9375 L 65.390625 -59 L 66.15625 -62.578125 L 66.15625 -64.109375 L 66.671875 -65.90625 L 67.1875 -69.21875 L 68.203125 -73.828125 L 67.953125 -75.609375 L 68.453125 -77.140625 L 69.484375 -82 L 69.984375 -85.828125 L 70.75 -90.421875 L 71.265625 -94 L 71.515625 -96.046875 L 72.03125 -97.828125 L 72.28125 -101.15625 L 72.546875 -104.734375 L 72.546875 -106.265625 L 73.0625 -108.8125 L 73.5625 -110.34375 L 73.828125 -112.140625 L 74.328125 -115.203125 L 75.09375 -116.984375 L 75.09375 -119.546875 L 75.359375 -121.328125 L 75.359375 -122.859375 L 75.859375 -124.65625 L 76.625 -128.234375 L 76.625 -129.765625 L 77.140625 -131.546875 L 77.390625 -134.875 L 77.90625 -136.40625 L 78.421875 -140.234375 L 79.1875 -144.0625 L 79.1875 -145.59375 L 73.0625 -145.859375 L 42.90625 -145.859375 L 40.109375 -146.109375 L 38.0625 -146.359375 L 36.78125 -148.921875 L 36.53125 -150.703125 L 37.296875 -156.328125 L 37.546875 -158.109375 L 38.0625 -161.1875 L 38.0625 -162.71875 L 38.828125 -164.5 L 39.34375 -166.296875 L 39.59375 -170.890625 L 39.84375 -172.9375 L 40.609375 -175.234375 L 41.640625 -177.015625 L 42.40625 -178.046875 L 45.21875 -178.8125 L 49.046875 -178.8125 L 52.625 -179.0625 L 56.203125 -178.8125 L 61.8125 -179.828125 L 68.453125 -179.0625 L 70.25 -178.8125 L 87.109375 -178.8125 L 89.40625 -179.0625 L 99.875 -179.0625 L 102.9375 -178.8125 L 114.6875 -178.8125 L 115.71875 -178.546875 L 115.96875 -178.546875 L 117.75 -178.296875 L 120.3125 -177.28125 L 120.828125 -174.46875 L 121.078125 -172.9375 L 120.5625 -171.140625 L 120.5625 -169.609375 L 120.3125 -167.828125 L 120.3125 -166.03125 L 120.0625 -164.5 L 119.796875 -162.71875 L 119.296875 -161.1875 L 118.515625 -154.03125 L 118.265625 -152.5 L 117.25 -148.921875 L 117.25 -147.125 L 114.953125 -137.9375 L 114.1875 -134.609375 L 114.1875 -132.828125 L 113.921875 -129.5 L 113.421875 -125.9375 L 112.390625 -124.140625 L 112.390625 -121.84375 L 111.875 -120.0625 L 111.875 -118.265625 L 111.109375 -116.484375 L 111.109375 -111.375 L 110.09375 -109.84375 L 109.578125 -106.265625 L 109.328125 -104.734375 L 109.328125 -102.9375 L 108.8125 -99.625 L 108.5625 -96.296875 L 107.546875 -93.484375 L 107.28125 -90.421875 L 106.265625 -87.359375 L 105.75 -81.484375 L 104.46875 -77.65625 L 103.96875 -75.859375 L 103.96875 -74.078125 L 103.703125 -72.546875 L 103.203125 -70.75 L 102.9375 -67.4375 L 102.171875 -65.90625 L 101.15625 -61.3125 L 100.890625 -58.5 L 100.890625 -55.9375 L 100.125 -53.890625 L 99.875 -51.34375 L 98.859375 -49.5625 L 99.359375 -47.765625 L 98.59375 -45.984375 L 98.34375 -43.6875 L 98.34375 -41.640625 L 97.578125 -39.84375 L 97.578125 -38.0625 L 96.5625 -36.265625 L 96.5625 -34.484375 L 95.53125 -32.1875 L 94.25 -28.609375 L 93.484375 -26.046875 L 92.46875 -23.5 L 91.1875 -21.71875 L 90.171875 -19.671875 L 88.375 -17.109375 L 87.359375 -14.8125 L 85.578125 -12.265625 L 81.734375 -9.453125 L 77.90625 -6.125 L 73.828125 -3.828125 L 71.78125 -3.0625 L 69.484375 -1.78125 L 67.4375 -1.28125 L 65.140625 -0.515625 L 61.046875 0.515625 L 55.9375 1.28125 L 51.859375 1.53125 Z M 44.953125 1.53125 "/></g></g></g><g fill="#7ed957" fill-opacity="1"><g transform="translate(110.603184, 198.498715)"><g><path d="M 19.921875 0.25 L 15.84375 0 L 14.046875 -0.25 L 9.453125 0 L 7.921875 -1.28125 L 7.921875 -6.125 L 8.6875 -7.65625 L 8.421875 -9.453125 L 9.203125 -13.03125 L 9.203125 -14.5625 L 9.96875 -18.140625 L 10.734375 -21.96875 L 11.5 -25.28125 L 11.75 -27.078125 L 12.515625 -30.140625 L 12.765625 -31.9375 L 13.03125 -33.46875 L 14.046875 -39.34375 L 14.8125 -40.875 L 15.078125 -44.1875 L 15.328125 -45.984375 L 15.84375 -47.515625 L 16.859375 -50.828125 L 17.109375 -52.359375 L 17.375 -55.4375 L 17.375 -56.703125 L 18.640625 -59.265625 L 18.640625 -62.078125 L 19.15625 -63.609375 L 19.15625 -65.390625 L 19.921875 -66.921875 L 20.171875 -70.75 L 20.953125 -76.125 L 21.71875 -77.90625 L 21.96875 -79.953125 L 22.21875 -83.53125 L 22.734375 -85.3125 L 22.984375 -86.84375 L 23.5 -88.640625 L 23.75 -90.171875 L 24.515625 -93.75 L 24.78125 -95.796875 L 25.28125 -99.625 L 26.046875 -103.703125 L 26.828125 -107.03125 L 26.828125 -110.09375 L 27.078125 -113.421875 L 27.59375 -115.203125 L 28.359375 -116.984375 L 28.609375 -120.3125 L 28.859375 -121.84375 L 29.890625 -125.9375 L 30.140625 -128.734375 L 29.890625 -129.765625 L 30.65625 -133.078125 L 30.90625 -134.609375 L 31.15625 -139.21875 L 31.671875 -141.25 L 32.4375 -144.828125 L 33.203125 -147.125 L 33.46875 -150.203125 L 33.96875 -151.984375 L 33.96875 -154.03125 L 34.484375 -155.8125 L 34.734375 -157.609375 L 34.734375 -159.140625 L 35.25 -160.921875 L 36.265625 -165.015625 L 36.53125 -166.796875 L 36.78125 -168.84375 L 37.546875 -172.421875 L 37.8125 -174.46875 L 38.828125 -177.78125 L 40.875 -178.8125 L 54.15625 -178.8125 L 57.46875 -179.0625 L 60.796875 -178.8125 L 62.328125 -179.0625 L 79.4375 -179.0625 L 81.234375 -178.8125 L 85.0625 -179.0625 L 88.640625 -179.0625 L 92.46875 -178.546875 L 94.515625 -178.546875 L 97.828125 -178.046875 L 103.203125 -177.28125 L 107.28125 -176.5 L 109.078125 -176 L 110.859375 -174.71875 L 112.640625 -173.953125 L 115.96875 -172.171875 L 118.265625 -170.125 L 119.296875 -168.84375 L 120.828125 -166.796875 L 122.359375 -165.015625 L 123.125 -162.96875 L 124.65625 -159.65625 L 125.171875 -157.859375 L 126.1875 -155.046875 L 126.4375 -152.234375 L 126.703125 -150.453125 L 127.46875 -147.640625 L 127.203125 -145.09375 L 127.46875 -141.25 L 127.46875 -139.46875 L 127.71875 -136.65625 L 127.46875 -133.84375 L 126.953125 -131.046875 L 126.703125 -129.25 L 126.1875 -123.625 L 125.671875 -120.0625 L 124.90625 -118.265625 L 124.65625 -116.21875 L 123.890625 -114.4375 L 123.625 -112.90625 L 123.125 -111.375 L 122.359375 -107.796875 L 121.59375 -105.75 L 120.3125 -102.171875 L 118.265625 -97.328125 L 116.984375 -94.515625 L 115.203125 -91.453125 L 112.90625 -87.609375 L 111.375 -86.078125 L 109.578125 -83.015625 L 107.28125 -80.96875 L 105.5 -78.421875 L 104.21875 -76.625 L 100.890625 -74.078125 L 99.625 -72.546875 L 96.046875 -70.75 L 93.484375 -69.984375 L 90.171875 -68.453125 L 86.078125 -67.1875 L 83.015625 -66.671875 L 79.703125 -66.40625 L 76.125 -65.90625 L 68.96875 -65.390625 L 64.109375 -65.640625 L 58.5 -65.640625 L 54.65625 -65.90625 L 54.65625 -65.390625 L 54.40625 -63.609375 L 53.640625 -61.5625 L 53.390625 -58.234375 L 52.875 -56.96875 L 52.625 -53.640625 L 52.359375 -52.109375 L 52.109375 -50.328125 L 51.59375 -48.78125 L 51.34375 -47 L 51.34375 -45.46875 L 50.578125 -41.890625 L 49.8125 -39.59375 L 49.296875 -36.53125 L 48.78125 -34.734375 L 48.015625 -31.671875 L 47.765625 -29.890625 L 47 -28.09375 L 47 -25.546875 L 46.234375 -21.71875 L 46.234375 -18.140625 L 45.21875 -16.609375 L 45.21875 -14.5625 L 44.953125 -12.765625 L 44.453125 -11.234375 L 44.1875 -9.453125 L 43.421875 -7.40625 L 43.171875 -5.109375 L 42.90625 -3.0625 L 42.140625 0 L 40.359375 0.25 Z M 60.03125 -98.09375 L 66.671875 -98.09375 L 69.484375 -98.59375 L 74.328125 -99.109375 L 76.125 -99.875 L 80.203125 -102.9375 L 83.015625 -105.5 L 84.8125 -108.3125 L 85.828125 -109.84375 L 87.109375 -113.421875 L 87.609375 -115.71875 L 88.640625 -118.015625 L 89.65625 -122.359375 L 90.6875 -129.5 L 91.1875 -136.140625 L 91.1875 -140.484375 L 90.171875 -143.5625 L 88.640625 -145.859375 L 85.828125 -147.890625 L 83.53125 -148.40625 L 76.625 -148.671875 L 70.75 -148.40625 L 68.96875 -147.890625 L 67.6875 -144.828125 L 67.1875 -143.5625 L 66.921875 -141 L 66.40625 -136.65625 L 65.90625 -134.875 L 65.140625 -131.8125 L 64.375 -126.703125 L 63.859375 -124.140625 L 63.09375 -120.0625 L 62.84375 -116.984375 L 62.84375 -114.953125 L 62.328125 -112.640625 L 61.046875 -106.265625 L 61.046875 -103.96875 L 60.28125 -100.390625 Z M 60.03125 -98.09375 "/></g></g></g><g clip-path="url(#8f28e3c8ce)"><g transform="matrix(1, 0, 0, 1, 268, 20)"><g clip-path="url(#cc7b876b6d)"><g clip-path="url(#4cf4fb8608)"><path fill="#ffffff" d="M 0.105469 179.183594 L 0.105469 0.921875 L 58.238281 0.921875 L 58.238281 179.183594 Z M 0.105469 179.183594 " fill-opacity="1" fill-rule="nonzero"><animate attributeName="opacity" values="1;0" dur="1s" repeatCount="10" calcMode="discrete"/></path></g></g></g></g></svg>