<?xml version="1.0" encoding="UTF-8"?>
<svg version="1.1" xmlns="http://www.w3.org/2000/svg" width="512" height="512">
<path d="M0 0 C168.96 0 337.92 0 512 0 C512 168.96 512 337.92 512 512 C343.04 512 174.08 512 0 512 C0 343.04 0 174.08 0 0 Z " fill="#FCFBF8" transform="translate(0,0)"/>
<path d="M0 0 C0.69664764 -0.00540298 1.39329529 -0.01080597 2.11105347 -0.01637268 C4.41528854 -0.02887866 6.7182767 -0.01233773 9.02246094 0.00561523 C10.63751287 0.00546008 12.25256517 0.00396836 13.86761475 0.00120544 C17.26054263 -0.00018009 20.65304871 0.0123884 24.04589844 0.03515625 C28.34907938 0.0632691 32.65154523 0.06088063 36.95477676 0.04806614 C40.29760592 0.04102641 43.64027672 0.04899582 46.98308563 0.06132317 C48.56635678 0.06577719 50.14964535 0.06622871 51.73291779 0.06225777 C74.05825932 0.03252325 95.33192904 4.2173178 112.31542969 19.59155273 C129.18504246 37.25038715 131.54407211 58.46016825 131.09570312 81.71655273 C130.47409933 101.19802544 122.08032253 119.11625952 108.00683594 132.50170898 C92.80852248 145.18691549 75.93596492 147.91523752 56.81933594 148.12670898 C54.41360639 148.1632578 52.00803735 148.203737 49.60246277 148.24935913 C48.11795115 148.27651819 46.63332014 148.29789877 45.14863586 148.31289673 C41.79157267 148.07204011 41.79157267 148.07204011 39.00683594 149.50170898 C38.90901658 151.77570958 38.88167216 154.05275403 38.88085938 156.32885742 C38.87899124 157.04273621 38.87712311 157.75661499 38.87519836 158.49212646 C38.87118496 160.0477843 38.86911867 161.60344806 38.86873627 163.15911102 C38.86533081 166.46564111 38.84397834 169.77197277 38.8235054 173.07843399 C38.78543846 179.24005902 38.754219 185.40147653 38.75634766 191.56323242 C38.75713489 195.84405505 38.73376276 200.12415804 38.69446564 204.40479279 C38.68400173 206.03620417 38.68248454 207.66769859 38.69011688 209.29912567 C38.69974467 211.58586815 38.67854841 213.87043622 38.65039062 216.15698242 C38.646745 217.45746521 38.64309937 218.757948 38.63934326 220.09783936 C37.84232604 224.38702718 36.42859147 225.87020904 33.00683594 228.50170898 C30.00447219 228.9649319 27.58913767 229.13632571 24.60058594 229.06030273 C23.79826538 229.05797134 22.99594482 229.05563995 22.16931152 229.05323792 C20.47816285 229.04352304 18.78704563 229.02178774 17.09619141 228.98876953 C14.5151319 228.93936777 11.93598188 228.92728663 9.35449219 228.92163086 C7.7073366 228.90754276 6.06019748 228.8913376 4.41308594 228.87280273 C3.6452478 228.86744003 2.87740967 228.86207733 2.08630371 228.85655212 C-1.99064166 228.76655615 -5.43105561 228.58305724 -8.99316406 226.50170898 C-11.76162421 222.69859593 -11.2772899 218.26763337 -11.2605896 213.77148438 C-11.26512071 212.88067452 -11.26965183 211.98986467 -11.27432024 211.07206059 C-11.28700097 208.08110971 -11.28534152 205.09034006 -11.28369141 202.09936523 C-11.28967426 199.95750697 -11.29647924 197.81565086 -11.30404663 195.67379761 C-11.32173604 189.85162603 -11.32640318 184.02951321 -11.3276782 178.20731735 C-11.3295755 173.35115593 -11.33693087 168.49500826 -11.34402239 163.63885212 C-11.36031423 152.18590411 -11.36519052 140.73298756 -11.36376953 129.2800293 C-11.36256708 117.45341415 -11.38368789 105.6269812 -11.41525686 93.80041218 C-11.44137598 83.6551213 -11.4521387 73.50989011 -11.45085871 63.36456585 C-11.4503479 57.30133857 -11.45609696 51.23827323 -11.47721481 45.17507935 C-11.49652434 39.47544427 -11.49677167 33.77612689 -11.48218155 28.07648087 C-11.48008345 25.98182844 -11.48485346 23.88715651 -11.49690247 21.79253769 C-11.5122592 18.93862505 -11.50311051 16.08582108 -11.48764038 13.23193359 C-11.49792751 12.39808671 -11.50821463 11.56423983 -11.51881349 10.70512486 C-11.47547042 7.10068717 -11.31372769 4.94166699 -9.16117668 1.98739529 C-6.05853242 -0.13877134 -3.74076583 0.00049433 0 0 Z " fill="#191B19" transform="translate(254.9931640625,168.498291015625)"/>
<path d="M0 0 C0.91112045 -0.00953201 1.82224091 -0.01906403 2.76097107 -0.02888489 C4.24066124 -0.02751778 4.24066124 -0.02751778 5.75024414 -0.02612305 C6.76131729 -0.03040817 7.77239044 -0.0346933 8.81410217 -0.03910828 C10.95516205 -0.0448584 13.09624147 -0.04534684 15.23730469 -0.04101562 C18.51864882 -0.03785792 21.79908986 -0.06129893 25.08032227 -0.08666992 C27.15779508 -0.08894301 29.23527033 -0.08964637 31.31274414 -0.08862305 C32.29718002 -0.09783279 33.28161591 -0.10704254 34.29588318 -0.11653137 C35.21015579 -0.11030258 36.12442841 -0.10407379 37.06640625 -0.09765625 C38.27314247 -0.09860039 38.27314247 -0.09860039 39.5042572 -0.0995636 C42.24768322 0.39080163 42.94676898 1.0289856 44.59790039 3.2746582 C44.97542381 6.24568176 44.97542381 6.24568176 44.97885132 9.96142578 C44.98353129 10.64478721 44.98821126 11.32814863 44.99303305 12.03221798 C45.0050229 14.3280711 44.99550998 16.62333163 44.98608398 18.91918945 C44.99014853 20.56366322 44.99548976 22.20813425 45.00201416 23.8526001 C45.01572465 28.32882975 45.01036925 32.80485256 45.0008769 37.28108597 C44.99327919 41.97808641 45.00032813 46.67506917 45.0050354 51.37207031 C45.01050123 59.27778286 45.00328867 67.18341152 44.98901367 75.08911133 C44.9727758 84.1859814 44.97790733 93.28264881 44.99449289 102.37951374 C45.00819265 110.21082173 45.0099836 118.0420693 45.00217688 125.87338543 C44.997535 130.54034924 44.99677634 135.20721856 45.00678635 139.87417603 C45.01557458 144.28029369 45.00922246 148.68615635 44.99210358 153.09224701 C44.98819711 154.69359671 44.98916984 156.29496855 44.99589157 157.8963089 C45.07704316 179.22891227 42.90116408 199.35621469 27.57055664 215.39575195 C13.5823968 228.77683071 -4.1917013 231.88087292 -22.8190918 231.60229492 C-38.94995093 231.15293161 -53.0151672 227.86888282 -65.02709961 216.3996582 C-78.66542089 201.38835156 -81.50909004 183.43102797 -81.71459961 163.8371582 C-81.73232422 162.79398438 -81.75004883 161.75081055 -81.76831055 160.67602539 C-81.76734375 159.67861328 -81.76637695 158.68120117 -81.76538086 157.65356445 C-81.76985229 156.31660522 -81.76985229 156.31660522 -81.77441406 154.95263672 C-81.31236148 151.629191 -80.01952708 149.19115979 -78.40209961 146.2746582 C-73.47252702 146.200515 -68.5432788 146.14606003 -63.61328125 146.10986328 C-61.93614041 146.09477437 -60.25903903 146.07430073 -58.58203125 146.04833984 C-56.17169457 146.0119601 -53.76187942 145.99493334 -51.35131836 145.98168945 C-50.60121994 145.9662056 -49.85112152 145.95072174 -49.07829285 145.93476868 C-43.9534779 145.93311094 -43.9534779 145.93311094 -41.43066406 147.49584961 C-40.10171454 149.79414683 -40.01817206 151.3765046 -39.99584961 154.02856445 C-39.97393555 154.96635742 -39.95202148 155.90415039 -39.92944336 156.87036133 C-39.92041992 157.8494043 -39.91139648 158.82844727 -39.90209961 159.8371582 C-39.81976686 168.52326337 -39.6523415 177.27436049 -33.96459961 184.2746582 C-29.72141618 187.58641112 -27.06715703 188.76622437 -21.49194336 188.5793457 C-17.839436 188.04683061 -15.13125946 186.76138 -12.40209961 184.2746582 C-8.09117472 178.0172854 -7.28061237 171.75139023 -7.25733948 164.27095032 C-7.25381263 163.57796898 -7.25028579 162.88498763 -7.24665207 162.17100686 C-7.23600201 159.85569694 -7.23229065 157.54042821 -7.22851562 155.22509766 C-7.2222078 153.56259997 -7.21544175 151.90010397 -7.20825195 150.23760986 C-7.19360245 146.66141931 -7.18186978 143.0852352 -7.17230415 139.50902748 C-7.15684442 133.85821601 -7.132898 128.20746037 -7.10740662 122.5566864 C-7.03621456 106.48964968 -6.97631209 90.42258181 -6.92529297 74.35546875 C-6.89703191 65.47895832 -6.86167995 56.60250429 -6.81863922 47.72605294 C-6.79181043 42.10423157 -6.77394069 36.48247395 -6.76260197 30.86060107 C-6.75350371 27.37077646 -6.73615622 23.88102977 -6.71642303 20.39125061 C-6.70892359 18.76825365 -6.70486504 17.14523675 -6.70442772 15.52222252 C-6.70335174 13.3137973 -6.69016407 11.10577241 -6.67384338 8.89741516 C-6.66961144 7.65948873 -6.66537951 6.42156229 -6.66101933 5.14612293 C-6.2332594 0.40219091 -4.28967366 0.02459167 0 0 Z " fill="#191B18" transform="translate(177.402099609375,168.725341796875)"/>
<path d="M0 0 C10.65952759 0.17474635 23.14737139 7.31372417 31.3125 13.8125 C36.26385697 16.44620052 41.25250853 15.0497297 46.55151367 13.85693359 C51.49309283 12.97439697 56.49338236 13.19040744 61.5 13.1875 C62.59441406 13.17525391 63.68882812 13.16300781 64.81640625 13.15039062 C70.57556127 13.14004484 75.74026909 13.54096335 81.32739258 14.91796875 C86.00681399 16.03033407 88.97087884 15.72589401 93.09765625 13.36328125 C94.50862273 12.48090595 95.91334588 11.58848852 97.3125 10.6875 C115.54701692 -0.53465466 115.54701692 -0.53465466 125.25 0.375 C129.15291667 5.22000001 129.36334511 9.94493013 129.35546875 15.9765625 C129.37770508 17.91982422 129.37770508 17.91982422 129.40039062 19.90234375 C129.42307637 21.94308478 129.43761017 23.98210105 129.42504883 26.02294922 C129.38180074 35.61934897 130.61784797 41.61384933 136.25 49.375 C140.63063591 57.67438225 140.45922237 66.15282433 140.5 75.3125 C140.5309375 77.0440332 140.5309375 77.0440332 140.5625 78.81054688 C140.59146384 85.12104271 140.3266716 89.8127016 137.25 95.375 C135.8578125 94.1065625 135.8578125 94.1065625 134.4375 92.8125 C117.91550271 78.7688023 96.64689765 71.17802107 75.09204102 71.26147461 C74.09615463 71.26132858 73.10026825 71.26118256 72.07420349 71.2610321 C68.80074849 71.26172567 65.52735124 71.26949195 62.25390625 71.27734375 C59.97704601 71.27920991 57.70018537 71.28063288 55.42332458 71.28163147 C49.44421267 71.28544108 43.46512523 71.29525805 37.48602295 71.30633545 C31.37935721 71.31658306 25.2726875 71.32113626 19.16601562 71.32617188 C7.19399969 71.33688174 -4.77799811 71.35393943 -16.75 71.375 C-16.76802279 69.78137324 -16.78085189 68.18768721 -16.79150391 66.59399414 C-16.79920807 65.70651993 -16.80691223 64.81904572 -16.81484985 63.90467834 C-16.73202561 60.67385074 -16.09224104 57.89115745 -15.125 54.8125 C-14.82335937 53.80058594 -14.52171875 52.78867188 -14.2109375 51.74609375 C-12.89613566 48.71220608 -11.61637856 46.90262339 -9.61328125 44.34375 C-5.49933345 38.3683414 -6.19478668 32.43891024 -6.5625 25.4375 C-6.93058369 16.89886719 -7.14506454 9.36947783 -3.75 1.375 C-2.75 0.375 -2.75 0.375 0 0 Z " fill="#1C1E1B" transform="translate(241.75,80.625)"/>
<path d="M0 0 C1.00869141 -0.03738281 2.01738281 -0.07476562 3.05664062 -0.11328125 C11.59307818 -0.21222257 17.94488415 1.89086351 24.5 7.4375 C25.2734375 8.3965625 25.2734375 8.3965625 26.0625 9.375 C26.59875 10.014375 27.135 10.65375 27.6875 11.3125 C31.75785456 17.41803183 31.46274805 23.46393321 31.5 30.5625 C31.53287109 31.64853516 31.56574219 32.73457031 31.59960938 33.85351562 C31.65469407 42.191335 30.04422041 49.04372886 24.27709961 55.31713867 C17.33408743 61.86411085 9.8460409 61.66470271 0.75 61.5625 C-0.35923828 61.56185547 -1.46847656 61.56121094 -2.61132812 61.56054688 C-10.79706743 61.51543257 -10.79706743 61.51543257 -11.9375 60.375 C-12.03655152 58.53927369 -12.06549207 56.69972425 -12.06689453 54.86132812 C-12.07004669 53.68340698 -12.07319885 52.50548584 -12.07644653 51.29187012 C-12.0744223 50.00961548 -12.07239807 48.72736084 -12.0703125 47.40625 C-12.07126923 46.10046997 -12.07222595 44.79468994 -12.07321167 43.44934082 C-12.07468833 40.68187278 -12.07253511 37.91443696 -12.06787109 35.14697266 C-12.06217381 31.59237351 -12.06545298 28.03784986 -12.07144356 24.48325348 C-12.07591747 21.10341286 -12.07278886 17.72359277 -12.0703125 14.34375 C-12.07233673 13.06149536 -12.07436096 11.77924072 -12.07644653 10.45812988 C-12.07329437 9.28020874 -12.07014221 8.1022876 -12.06689453 6.88867188 C-12.06609894 5.84578003 -12.06530334 4.80288818 -12.06448364 3.72839355 C-11.76128552 -1.89079079 -4.34922885 0.05910008 0 0 Z " fill="#FCFAF8" transform="translate(304.9375,211.625)"/>
</svg>
